Coordinates
version=1
nRows=8
nColumns=24
inDegrees=yes

Units are S.I. units (second, meters, Newtons, ...)
Angles are in degrees.

endheader
time	pelvis_tilt	pelvis_list	pelvis_rotation	pelvis_tx	pelvis_ty	pelvis_tz	hip_flexion_r	hip_adduction_r	hip_rotation_r	knee_angle_r	ankle_angle_r	subtalar_angle_r	mtp_angle_r	hip_flexion_l	hip_adduction_l	hip_rotation_l	knee_angle_l	ankle_angle_l	subtalar_angle_l	mtp_angle_l	lumbar_extension	lumbar_bending	lumbar_rotation
      1.25000000000000000000	      4.54435878830610650000	     -4.33364728335861040000	     -4.46340141278633950000	      0.57912468763214098000	      1.01373611836534020000	      0.04540062731611616000	    -21.01196288126650900000	      4.46421614622235370000	      3.17862663024512140000	     -8.70202863743016410000	     14.05228191838647500000	      0.00000042681640695030	      0.00000000000000000000	     19.11458771146017100000	     -5.52614794532071940000	     -4.57203454031638050000	     -3.43534986243747300000	     -0.83177457197614679000	     -0.00000114694199415563	      0.00000000000000000000	    -16.94131136351062100000	      2.30715428409226140000	      4.51959886289423720000
      1.26666666666666660000	      4.39844227745182790000	     -4.06520671146228360000	     -4.51163471622641590000	      0.58125502613065894000	      1.01238700656121510000	      0.04352428388288252800	    -21.19023926715121300000	      3.97992666536378700000	      3.29319179802483750000	    -10.51560632380109100000	     14.27728548326573900000	      0.00000091978790522258	      0.00000000000000000000	     19.67452817442656600000	     -5.04980350204231240000	     -4.09638653086856670000	     -6.01418960191982870000	     -1.59829485100813810000	     -0.00000148002462952152	      0.00000000000000000000	    -16.47516208910134600000	      1.75311799024411520000	      4.33366690992057090000
      1.28333333333333320000	      4.17992283286469930000	     -4.17990755270874900000	     -4.72187707157443450000	      0.58219186764640463000	      1.01140838151540140000	      0.04217294174921749200	    -20.82674803714341000000	      3.88585658348835760000	      3.60060920760386830000	    -13.13758911605310300000	     14.29782660321513400000	      0.00000129001868044394	      0.00000000000000000000	     20.24036247315160600000	     -5.07823143285776450000	     -3.84415850611971080000	     -8.58512283299678990000	     -2.70629176806614470000	     -0.00000170447720965868	      0.00000000000000000000	    -16.24273112447710300000	      1.43670889957193480000	      4.26975766777910070000
      1.30000000000000000000	      4.07856187760708530000	     -4.01218317055202170000	     -4.95469343842727920000	      0.58467833287219906000	      1.01120297287707620000	      0.04058264772255548700	    -20.62595478118294100000	      3.45158018970617200000	      3.76315303874436010000	    -15.69318317863279200000	     13.81555465276522600000	      0.00000196285200241470	      0.00000000000000000000	     20.57072123620633200000	     -4.84276815170707310000	     -3.84882212983902370000	    -11.22079797698049200000	     -3.56601722283330740000	     -0.00000191642598836712	      0.00000000000000000000	    -15.88800371298910200000	      0.75703068392444217000	      4.16275859278335330000
      1.31666666666666670000	      4.19981380179150940000	     -3.71417969630822050000	     -5.14212894636074850000	      0.58771089931197484000	      1.01183642484594840000	      0.03874456560161918700	    -20.12746026932360600000	      2.89221897181459030000	      3.77812924481676490000	    -19.21115342098988800000	     12.99724392256117700000	      0.00000255645788961370	      0.00000000000000000000	     20.50413635672843800000	     -4.46200554905096250000	     -4.02172135227186270000	    -13.67574991623019900000	     -4.07331983273188140000	     -0.00000197129345815650	      0.00000000000000000000	    -15.68940853758661700000	     -0.02113428740102669600	      3.87464018140549320000
      1.33333333333333330000	      4.39153910071588080000	     -3.43944117937545360000	     -5.18867121317916170000	      0.59086566354171755000	      1.01297943416917560000	      0.03668260696543489800	    -19.16792406233304300000	      2.39167518164739250000	      3.45199240952085920000	    -23.59310275649349400000	     11.61347219831181700000	      0.00000329255594102962	      0.00000000000000000000	     20.19315410515625300000	     -4.06206616305010120000	     -4.09293463569488390000	    -15.87602679196961100000	     -4.16724769704732270000	     -0.00000216505256653642	      0.00000000000000000000	    -15.52631368422174200000	     -0.72333651192075488000	      3.63885996794888690000
      1.35000000000000010000	      4.83874488452877840000	     -3.06514917571777710000	     -5.10134770694518110000	      0.59419496275941264000	      1.01490584018523870000	      0.03408332469749993800	    -17.94150845670024100000	      1.71251372003797540000	      2.58964707742653030000	    -28.68840824883675800000	      9.33493338892317050000	      0.00000401908371999070	      0.00000000000000000000	     19.36280331382874200000	     -3.47865429548472880000	     -4.12729414225097990000	    -17.67815893456488400000	     -3.89692855834985920000	     -0.00000230693649477983	      0.00000000000000000000	    -15.59616121018071100000	     -1.45672916998850590000	      3.28408288866909490000
      1.36666666666666670000	      5.12755468506311020000	     -2.63101789420972310000	     -4.86227728854303540000	      0.59723702521111899000	      1.01675766684598830000	      0.03073334303546142900	    -15.94054841487913000000	      0.83669411103262747000	      1.12141914384768570000	    -34.48304800709206600000	      6.02246659012257800000	      0.00000462983444643767	      0.00000000000000000000	     18.47994557832045400000	     -2.76743869147060330000	     -4.09811319646986940000	    -19.03951010975470500000	     -3.35381495895804080000	     -0.00000234171568838395	      0.00000000000000000000	    -15.54528756685612800000	     -2.12505126512811860000	      2.71809335077636180000
